<?xml version="1.0" encoding="UTF-8" standalone="no"?>
<!-- Created with Inkscape (http://www.inkscape.org/) -->

<svg
   xmlns:dc="http://purl.org/dc/elements/1.1/"
   xmlns:cc="http://creativecommons.org/ns#"
   xmlns:rdf="http://www.w3.org/1999/02/22-rdf-syntax-ns#"
   xmlns:svg="http://www.w3.org/2000/svg"
   xmlns="http://www.w3.org/2000/svg"
   xmlns:sodipodi="http://sodipodi.sourceforge.net/DTD/sodipodi-0.dtd"
   xmlns:inkscape="http://www.inkscape.org/namespaces/inkscape"
   id="svg2"
   version="1.1"
   inkscape:version="0.91 r13725"
   xml:space="preserve"
   width="1582.6375"
   height="1119.045"
   viewBox="0 0 1582.6375 1119.045"
   sodipodi:docname="vupit_simple.svg"><metadata
     id="metadata8"><rdf:RDF><cc:Work
         rdf:about=""><dc:format>image/svg+xml</dc:format><dc:type
           rdf:resource="http://purl.org/dc/dcmitype/StillImage" /><dc:title></dc:title></cc:Work></rdf:RDF></metadata><defs
     id="defs6"><clipPath
       clipPathUnits="userSpaceOnUse"
       id="clipPath18"><path
         d="m 0,895.236 1266.11,0 L 1266.11,0 0,0 0,895.236 Z"
         id="path20"
         inkscape:connector-curvature="0" /></clipPath></defs><sodipodi:namedview
     pagecolor="#ffffff"
     bordercolor="#666666"
     borderopacity="1"
     objecttolerance="10"
     gridtolerance="10"
     guidetolerance="10"
     inkscape:pageopacity="0"
     inkscape:pageshadow="2"
     inkscape:window-width="1600"
     inkscape:window-height="876"
     id="namedview4"
     showgrid="false"
     inkscape:zoom="0.4217882"
     inkscape:cx="653.94151"
     inkscape:cy="480.75067"
     inkscape:window-x="0"
     inkscape:window-y="24"
     inkscape:window-maximized="1"
     inkscape:current-layer="g10" /><g
     id="g10"
     inkscape:groupmode="layer"
     inkscape:label="VUPIT DELIVERY"
     transform="matrix(1.25,0,0,-1.25,0,1119.045)"><g
       id="g50"
       transform="translate(316.46713,511.67838)"><path
         d="m 0,0 9.574,-75.922 122.41,103.463 c -3.634,5.137 -9.616,8.511 -16.351,8.511 l -160.179,0 c -11.012,0 -20.022,-9.011 -20.022,-20.023 l 0,-73.664 L 0,0 Z"
         style="fill:#ffffff;fill-opacity:1;fill-rule:nonzero;stroke:none"
         id="path52"
         inkscape:connector-curvature="0" /></g><g
       id="g54"
       transform="translate(312.03653,374.00458)"><path
         d="m 0,0 -18.393,88.325 -41.745,-27.658 0,-67.144 c 0,-11.012 9.011,-20.022 20.023,-20.022 l 160.179,0 c 11.012,0 20.022,9.01 20.022,20.022 l 0,156.056 L 0,0 Z"
         style="fill:#ffffff;fill-opacity:1;fill-rule:nonzero;stroke:none"
         id="path56"
         inkscape:connector-curvature="0" /></g><g
       id="g58"
       transform="translate(592.05653,402.87178)"><path
         d="m 0,0 -46.333,89.492 13.732,0 34.123,-66.192 43.18,66.192 13.578,0 L 0,0 Z"
         style="fill:#ffffff;fill-opacity:1;fill-rule:nonzero;stroke:none"
         id="path60"
         inkscape:connector-curvature="0" /></g><g
       id="g62"
       transform="translate(899.14493,421.38548)"><path
         d="M 0,0 5.104,70.979 -7.597,57.416 -12.702,-13.563 0,0 Z"
         style="fill:#ffffff;fill-opacity:1;fill-rule:nonzero;stroke:none"
         id="path64"
         inkscape:connector-curvature="0" /></g><g
       id="g66"
       transform="translate(982.76943,492.36398)"><path
         d="m 0,0 -8.332,0 -28.606,0 -12.136,-12.959 0,-0.002 31.169,0 2.623,0 -5.148,-71.574 12.702,13.563 -0.001,-0.018 4.174,58.029 2.623,0 20.235,0 L 31.442,0 0,0 Z"
         style="fill:#ffffff;fill-opacity:1;fill-rule:nonzero;stroke:none"
         id="path68"
         inkscape:connector-curvature="0" /></g><g
       id="g70"
       transform="translate(741.92273,478.86098)"><path
         d="m 0,0 -2.114,-29.392 c -0.104,-1.442 -0.434,-3.91 -0.995,-7.406 -0.334,-1.75 -0.77,-3.524 -1.309,-5.323 -0.541,-1.802 -1.235,-3.576 -2.08,-5.323 -0.47,-0.826 -0.917,-1.648 -1.335,-2.469 -0.421,-0.825 -0.862,-1.597 -1.322,-2.315 -0.23,-0.308 -0.455,-0.593 -0.679,-0.848 -0.226,-0.258 -0.448,-0.489 -0.667,-0.695 -1.583,-1.955 -3.615,-3.395 -6.098,-4.321 -2.484,-0.926 -4.921,-1.542 -7.307,-1.851 -2.808,-0.411 -5.7,-0.565 -8.674,-0.463 -3.293,0 -6.062,0.129 -8.305,0.385 -2.245,0.257 -4.026,0.541 -5.339,0.849 -1.617,0.411 -2.818,0.873 -3.604,1.389 -0.398,0.206 -0.766,0.437 -1.106,0.695 -0.344,0.255 -0.66,0.487 -0.954,0.693 -1.763,1.235 -3.089,2.83 -3.976,4.785 -1.008,1.748 -1.674,3.908 -2.003,6.48 -0.544,2.468 -0.843,4.731 -0.899,6.788 -0.024,1.131 -0.03,2.109 -0.021,2.933 0.005,0.821 0.037,1.593 0.088,2.313 l 3.352,46.599 -0.034,0 -12.665,-13.523 -2.379,-33.076 c -0.155,-2.16 -0.215,-5.143 -0.18,-8.948 0.057,-2.06 0.294,-4.115 0.712,-6.172 0.417,-2.059 1.064,-4.166 1.937,-6.326 0.44,-1.029 0.932,-2.059 1.476,-3.087 0.543,-1.028 1.136,-2.058 1.783,-3.086 1.396,-2.057 3.068,-3.806 5.024,-5.246 2.041,-1.646 4.116,-2.829 6.225,-3.549 0.5,-0.206 2.285,-0.746 5.361,-1.619 3.074,-0.874 8.108,-1.311 15.104,-1.311 2.871,-0.103 5.656,0 8.356,0.307 2.378,0.208 4.907,0.671 7.583,1.39 2.674,0.719 5.089,1.799 7.253,3.24 0.646,0.41 1.291,0.796 1.934,1.156 0.643,0.36 1.292,0.796 1.946,1.313 3.379,2.674 6.074,5.81 8.083,9.411 0.948,1.749 1.794,3.496 2.536,5.247 0.745,1.747 1.434,3.495 2.077,5.246 0.534,1.747 0.988,3.395 1.357,4.938 0.366,1.543 0.654,3.033 0.862,4.473 0.204,1.44 0.347,2.674 0.421,3.704 0.073,1.028 0.137,1.904 0.189,2.623 l 3.085,42.895 -0.053,0 L 0,0 Z"
         style="fill:#ffffff;fill-opacity:1;fill-rule:nonzero;stroke:none"
         id="path72"
         inkscape:connector-curvature="0" /></g><g
       id="g74"
       transform="translate(862.78893,479.71058)"><path
         d="m 0,0 c -2.449,3.086 -5.306,5.452 -8.575,7.098 -3.365,1.749 -6.408,2.983 -9.13,3.704 -3.108,1.026 -5.531,1.594 -7.27,1.697 -0.918,0.101 -1.633,0.154 -2.146,0.154 l -0.924,0 -51.751,0 -6.082,-84.554 0.004,0.055 12.702,13.562 0.777,10.82 0.94,13.056 2.508,34.871 39.964,0 c 0.616,0 2.302,-0.154 5.058,-0.463 2.549,-0.308 5.315,-1.184 8.298,-2.623 0.689,-0.412 1.355,-0.798 2,-1.156 0.642,-0.362 1.2,-0.799 1.68,-1.312 1.072,-0.824 2.027,-1.852 2.864,-3.086 1.682,-2.369 2.385,-5.453 2.112,-9.258 -0.171,-2.367 -0.613,-4.219 -1.326,-5.554 -0.735,-1.647 -1.553,-2.986 -2.448,-4.013 -1.443,-1.44 -3.344,-2.829 -5.701,-4.166 -2.346,-1.132 -4.71,-1.852 -7.098,-2.159 -0.532,-0.208 -1.057,-0.361 -1.578,-0.463 -0.523,-0.105 -1.043,-0.207 -1.564,-0.309 -0.532,-0.207 -1.001,-0.309 -1.41,-0.309 l -1.389,0 -1.544,0 -0.462,0 -22.754,0 -11.449,-12.189 33.171,0 c 0.205,0 0.747,0.025 1.625,0.077 0.878,0.05 2.145,0.127 3.798,0.232 3.209,0.309 7.039,1.335 11.485,3.086 2.433,0.926 4.724,2.056 6.88,3.394 2.017,1.235 4.118,2.931 6.306,5.091 4.292,4.63 6.687,10.39 7.184,17.282 C 5.257,-10.441 3.672,-4.628 0,0"
         style="fill:#ffffff;fill-opacity:1;fill-rule:nonzero;stroke:none"
         id="path76"
         inkscape:connector-curvature="0" /></g></g></svg>